<svg xmlns="http://www.w3.org/2000/svg" xmlns:xlink="http://www.w3.org/1999/xlink" width="120" height="120" viewBox="0 0 120 120">
  <defs>
    <filter id="Oval" x="0" y="0" width="109.318" height="109.317" filterUnits="userSpaceOnUse">
      <feOffset dy="3" input="SourceAlpha"/>
      <feGaussianBlur stdDeviation="3" result="blur"/>
      <feFlood flood-opacity="0.161"/>
      <feComposite operator="in" in2="blur"/>
      <feComposite in="SourceGraphic"/>
    </filter>
  </defs>
  <g id="Twitter" transform="translate(9 6)">
    <g transform="matrix(1, 0, 0, 1, -9, -6)" filter="url(#Oval)">
      <circle id="Oval-2" data-name="Oval" cx="45.659" cy="45.659" r="45.659" transform="translate(9 6)" fill="none"/>
    </g>
    <path id="Twitter-2" data-name="Twitter" d="M37.464,3.6a15.418,15.418,0,0,1-4.415,1.211A7.708,7.708,0,0,0,36.428.563a15.36,15.36,0,0,1-4.882,1.863,7.69,7.69,0,0,0-13.3,5.258,7.771,7.771,0,0,0,.2,1.753A21.818,21.818,0,0,1,2.61,1.407,7.692,7.692,0,0,0,4.988,11.666a7.622,7.622,0,0,1-3.48-.961v.1a7.688,7.688,0,0,0,6.165,7.534,7.674,7.674,0,0,1-2.025.27A7.561,7.561,0,0,1,4.2,18.467a7.7,7.7,0,0,0,7.181,5.338,15.441,15.441,0,0,1-9.548,3.288A15.492,15.492,0,0,1,0,26.986a21.75,21.75,0,0,0,11.783,3.453c14.136,0,21.868-11.709,21.868-21.863,0-.335-.009-.663-.022-.994a15.621,15.621,0,0,0,3.835-3.977v0Z" transform="translate(26.927 30.439)" fill="#2aa3ef"/>
  </g>
</svg>
