<svg xmlns="http://www.w3.org/2000/svg" width="60" height="40" viewBox="0 0 60 40">
  <g id="Youtube" transform="translate(32.775 -4.125)">
    <path id="Youtube-2" data-name="Youtube" d="M20.05,31.3h0c-.1,0-10.477-.076-13.62-.427-.169-.04-.375-.07-.613-.1A5.613,5.613,0,0,1,2,28.953C.844,27.617.419,24.573.415,24.542A71.5,71.5,0,0,1,0,17.358V14.014c0-3.58.411-7.219.415-7.256S.776,3.683,2,2.347A5.453,5.453,0,0,1,5.895.509H5.9L6.015.5C11.549.076,19.966,0,20.05,0s8.5.076,14.035.5l.19.016A5.1,5.1,0,0,1,38.1,2.347c1.161,1.336,1.586,4.38,1.59,4.411s.415,3.674.415,7.256v3.344c0,3.509-.411,7.148-.415,7.184s-.43,3.075-1.59,4.411a5.453,5.453,0,0,1-3.89,1.838H34.2l-.112.01C28.549,31.294,20.134,31.3,20.05,31.3ZM15.21,8.465V23.9l13.137-7.541Z" transform="translate(-32.775 4.125)" fill="#f52929"/>
  </g>
</svg>
